<svg xmlns="http://www.w3.org/2000/svg" width="22" height="30" viewBox="3 6 22 30" preserveAspectRatio="xMidYMid meet" version="1.1">
	<g style="transform-box: view-box; transform-origin: center; transform: scale(.9);">		
    
        <path d="M 3 21 L 3 36 14 36 L 25 36 25 24.616 L 25 13.233 20.997 9.616 C 17.201 6.187, 16.632 6, 9.997 6 L 3 6 3 21 M 5 21 L 5 33 14.044 33 L 23.088 33 22.794 25.750 L 22.500 18.500 18 18 C 13.511 17.501, 13.499 17.489, 13.193 13.250 C 12.886 9.021, 12.866 9, 8.943 9 L 5 9 5 21 M 16 13 C 16 15.706, 16.313 16, 19.187 16 L 22.374 16 19.500 13 C 17.919 11.350, 16.485 10, 16.313 10 C 16.141 10, 16 11.350, 16 13 M 10 22.441 C 10 23.234, 10.472 24.174, 11.049 24.530 C 11.763 24.972, 11.718 25.635, 10.906 26.613 C 9.463 28.352, 10.575 29.825, 12.145 28.255 C 12.961 27.439, 13.743 27.447, 15.083 28.284 C 17.392 29.726, 18.695 28.542, 17.020 26.524 C 16 25.295, 16 24.705, 17.020 23.476 C 18.681 21.474, 17.493 20.346, 15.482 22.015 C 14.295 23, 13.634 23.034, 12.758 22.158 C 11.181 20.581, 10 20.703, 10 22.441" stroke="none" fill="#ed3426" fill-rule="evenodd"/>
    </g>
</svg>